<?xml version="1.0" encoding="UTF-8" standalone="no"?>
<svg version="1.1" id="svg1" viewBox="380 455 400 65" xmlns="http://www.w3.org/2000/svg">
  <g id="text-only">
    <path d="m 0,0 c -3.682,0 -4.881,1.619 -4.881,4.881 v 10.117 h 4.038 v -9.74 c 0,-1.087 0.289,-1.42 1.331,-1.42 h 10.405 l 0,-3.838 z" style="fill:#777676;fill-opacity:1;fill-rule:nonzero;stroke:none" transform="matrix(1.3333333,0,0,-1.3333333,403.0104,497.33813)" />
    <path d="m 0,0 c -1.353,0 -2.196,-0.377 -2.84,-0.976 -0.687,-0.643 -1.109,-1.575 -1.109,-2.574 0,-0.909 0.355,-1.753 0.932,-2.373 C -2.374,-6.634 -1.42,-7.077 0,-7.077 h 3.15 c 1.42,0 2.374,0.443 3.017,1.154 0.578,0.62 0.932,1.464 0.932,2.373 0,0.999 -0.421,1.931 -1.109,2.574 C 5.347,-0.377 4.504,0 3.15,0 Z m 0,-11.026 c -2.685,0 -4.659,0.932 -6.034,2.44 -1.199,1.309 -1.93,3.084 -1.93,5.058 0,2.175 0.931,4.149 2.417,5.524 1.332,1.221 3.129,1.975 5.547,1.975 h 3.15 c 2.419,0 4.216,-0.754 5.547,-1.975 1.486,-1.375 2.418,-3.349 2.418,-5.524 0,-1.974 -0.732,-3.749 -1.93,-5.058 -1.375,-1.508 -3.35,-2.44 -6.035,-2.44 z" style="fill:#777676;fill-opacity:1;fill-rule:nonzero;stroke:none" transform="matrix(1.3333333,0,0,-1.3333333,428.21093,482.63613)" />
    <path d="m 0,0 h -7.854 c -2.685,0 -4.659,0.932 -6.034,2.441 -1.199,1.309 -1.93,3.083 -1.93,5.058 0,2.174 0.931,4.148 2.417,5.524 1.332,1.22 3.129,1.975 5.547,1.975 H 0 v -3.972 h -7.854 c -1.353,0 -2.196,-0.377 -2.84,-0.976 -0.687,-0.643 -1.109,-1.575 -1.109,-2.574 0,-0.909 0.355,-1.752 0.932,-2.373 0.643,-0.71 1.597,-1.154 3.017,-1.154 l 7.854,0 z" style="fill:#777676;fill-opacity:1;fill-rule:nonzero;stroke:none" transform="matrix(1.3333333,0,0,-1.3333333,465.5084,497.33813)" />
    <path d="m 0,0 -2.307,5.369 c -0.133,0.333 -0.399,0.466 -0.688,0.466 -0.266,0 -0.51,-0.111 -0.665,-0.466 L -5.946,0 Z M 6.722,-4.97 C 6.833,-5.214 6.9,-5.413 6.966,-5.635 H 2.441 C 2.396,-5.436 2.33,-5.28 2.263,-5.125 l -0.799,1.82 H -7.41 L -8.186,-5.103 C -8.253,-5.28 -8.319,-5.458 -8.341,-5.635 h -4.638 c 0.067,0.222 0.133,0.421 0.244,0.665 l 5.369,11.892 c 0.844,1.863 2.197,2.773 4.349,2.773 2.086,0 3.483,-0.91 4.326,-2.773 z" style="fill:#777676;fill-opacity:1;fill-rule:nonzero;stroke:none" transform="matrix(1.3333333,0,0,-1.3333333,483.66773,489.82453)" />
    <path d="m 0,0 c -3.682,0 -4.881,1.619 -4.881,4.881 v 10.117 h 4.038 v -9.74 c 0,-1.087 0.289,-1.42 1.331,-1.42 h 10.405 l 0,-3.838 z" style="fill:#777676;fill-opacity:1;fill-rule:nonzero;stroke:none" transform="matrix(1.3333333,0,0,-1.3333333,499.4312,497.33813)" />
    <path d="m 0,0 c -2.685,0 -4.659,0.932 -6.034,2.441 -1.199,1.309 -1.93,3.083 -1.93,5.058 0,2.174 0.931,4.148 2.418,5.524 1.331,1.22 3.128,1.975 5.546,1.975 H 8.098 V 11.026 H 0 c -1.353,0 -2.196,-0.377 -2.84,-0.976 -0.687,-0.643 -1.109,-1.575 -1.109,-2.574 0,-0.909 0.355,-1.752 0.932,-2.373 C -2.374,4.393 -1.42,3.883 0,3.883 h 3.838 c 0.2,0 0.289,0.088 0.289,0.31 V 8.209 H 8.12 V 0.954 C 8.12,0.31 7.81,0 7.166,0 Z" style="fill:#777676;fill-opacity:1;fill-rule:nonzero;stroke:none" transform="matrix(1.3333333,0,0,-1.3333333,536.63907,497.33813)" />
    <path d="M 0,0 C 0.554,0 0.887,0.2 1.131,0.488 1.309,0.71 1.42,0.976 1.42,1.265 1.42,1.575 1.309,1.886 1.087,2.108 0.865,2.352 0.51,2.507 0,2.507 h -6.767 c -0.222,0 -0.332,-0.133 -0.332,-0.333 V 0 Z m -7.099,-8.741 h -4.016 V 5.325 c 0,0.621 0.332,0.932 0.998,0.932 H 0.532 c 1.842,0 3.017,-0.555 3.839,-1.42 0.731,-0.777 1.198,-1.82 1.198,-2.951 0,-1.198 -0.356,-2.33 -1.42,-3.106 0.998,-0.599 1.442,-1.398 1.442,-3.106 v -2.995 c 0,-0.643 0.022,-0.999 0.066,-1.42 h -4.06 c -0.044,0.333 -0.066,0.665 -0.066,0.998 v 2.995 c 0,0.954 -0.467,1.332 -1.642,1.332 h -6.988 z" style="fill:#777676;fill-opacity:1;fill-rule:nonzero;stroke:none" transform="matrix(1.3333333,0,0,-1.3333333,564.41293,485.68333)" />
    <path d="m 434.378,222.272 h -4.038 v 14.998 h 4.038 z" style="fill:#777676;fill-opacity:1;fill-rule:nonzero;stroke:none" transform="matrix(1.3333333,0,0,-1.3333333,0,793.70133)" />
    <path d="m 0,0 c -0.2,0 -0.288,-0.089 -0.288,-0.31 v -6.457 c 0,-0.222 0.088,-0.31 0.288,-0.31 h 4.77 c 1.42,0 2.374,0.443 3.017,1.154 0.577,0.62 0.932,1.464 0.932,2.373 0,0.999 -0.421,1.931 -1.109,2.574 C 6.966,-0.377 6.123,0 4.77,0 Z m 4.77,3.971 c 2.418,0 4.215,-0.754 5.546,-1.975 1.487,-1.375 2.419,-3.349 2.419,-5.524 0,-1.974 -0.733,-3.749 -1.931,-5.058 -1.375,-1.508 -3.35,-2.44 -6.034,-2.44 h -8.098 c -0.643,0 -0.976,0.31 -0.976,0.954 V 3.039 c 0,0.621 0.333,0.932 0.976,0.932 z" style="fill:#777676;fill-opacity:1;fill-rule:nonzero;stroke:none" transform="matrix(1.3333333,0,0,-1.3333333,587.15707,482.63613)" />
    <path d="m 0,0 -2.329,-8.275 c -0.644,-2.307 -2.042,-3.35 -4.349,-3.35 -2.728,0 -4.037,1.442 -4.348,3.35 L -12.89,2.973 c -0.044,0.288 -0.066,0.488 -0.066,0.71 h 4.237 c 0,-0.156 0.022,-0.378 0.044,-0.577 l 1.576,-10.25 c 0.044,-0.355 0.222,-0.51 0.532,-0.51 0.266,0 0.444,0.111 0.533,0.466 l 2.285,8.053 c 0.621,2.152 1.819,3.151 4.237,3.151 2.397,0 3.528,-0.999 4.083,-3.04 l 2.24,-8.164 c 0.089,-0.355 0.266,-0.466 0.533,-0.466 0.31,0 0.466,0.155 0.532,0.51 l 1.708,10.25 c 0.045,0.222 0.045,0.443 0.045,0.577 h 4.193 c 0,-0.222 -0.022,-0.4 -0.067,-0.71 L 11.759,-8.298 c -0.355,-1.974 -1.686,-3.327 -4.393,-3.327 -2.263,0 -3.639,1.087 -4.237,3.35 L 0.976,0 C 0.888,0.333 0.732,0.444 0.488,0.444 0.245,0.444 0.089,0.333 0,0" style="fill:#777676;fill-opacity:1;fill-rule:nonzero;stroke:none" transform="matrix(1.3333333,0,0,-1.3333333,633.5936,482.25173)" />
    <path d="m 0,0 c -1.353,0 -2.196,-0.377 -2.84,-0.976 -0.687,-0.643 -1.109,-1.575 -1.109,-2.574 0,-0.909 0.355,-1.753 0.932,-2.373 C -2.374,-6.634 -1.42,-7.077 0,-7.077 h 3.15 c 1.42,0 2.374,0.443 3.018,1.154 0.577,0.62 0.931,1.464 0.931,2.373 0,0.999 -0.421,1.931 -1.109,2.574 C 5.347,-0.377 4.504,0 3.15,0 Z m 0,-11.026 c -2.685,0 -4.659,0.932 -6.034,2.44 -1.199,1.309 -1.93,3.084 -1.93,5.058 0,2.175 0.931,4.149 2.417,5.524 1.332,1.221 3.129,1.975 5.547,1.975 h 3.15 c 2.419,0 4.216,-0.754 5.547,-1.975 1.486,-1.375 2.418,-3.349 2.418,-5.524 0,-1.974 -0.732,-3.749 -1.93,-5.058 -1.375,-1.508 -3.35,-2.44 -6.035,-2.44 z" style="fill:#777676;fill-opacity:1;fill-rule:nonzero;stroke:none" transform="matrix(1.3333333,0,0,-1.3333333,662.52,482.63613)" />
    <path d="M 0,0 C 0.554,0 0.887,0.2 1.131,0.488 1.309,0.71 1.42,0.976 1.42,1.265 1.42,1.575 1.309,1.886 1.087,2.108 0.865,2.352 0.51,2.507 0,2.507 h -6.767 c -0.222,0 -0.332,-0.133 -0.332,-0.333 V 0 Z m -7.099,-8.741 h -4.016 V 5.325 c 0,0.621 0.333,0.932 0.998,0.932 H 0.532 c 1.842,0 3.017,-0.555 3.839,-1.42 0.731,-0.777 1.198,-1.82 1.198,-2.951 0,-1.198 -0.356,-2.33 -1.42,-3.106 0.998,-0.599 1.442,-1.398 1.442,-3.106 v -2.995 c 0,-0.643 0.022,-0.999 0.066,-1.42 h -4.06 c -0.044,0.333 -0.066,0.665 -0.066,0.998 v 2.995 c 0,0.954 -0.466,1.332 -1.642,1.332 h -6.988 z" style="fill:#777676;fill-opacity:1;fill-rule:nonzero;stroke:none" transform="matrix(1.3333333,0,0,-1.3333333,693.99067,485.68333)" />
    <path d="m 0,0 v -6.146 l 6.833,5.524 C 7.055,-0.444 7.299,-0.2 7.454,0 h 5.613 C 12.979,-0.134 12.801,-0.289 12.668,-0.4 L 4.415,-6.789 C 4.326,-6.855 4.282,-6.922 4.282,-7.033 c 0,-0.111 0.022,-0.155 0.133,-0.244 l 8.852,-7.166 c 0.199,-0.178 0.399,-0.355 0.577,-0.555 H 7.853 c -0.177,0.2 -0.399,0.399 -0.665,0.621 L 0,-8.364 v -6.634 H -4.06 V 0 Z" style="fill:#777676;fill-opacity:1;fill-rule:nonzero;stroke:none" transform="matrix(1.3333333,0,0,-1.3333333,708.748,477.34107)" />
    <path d="m 0,0 h -10.782 c -0.488,0 -0.754,-0.111 -0.932,-0.288 -0.2,-0.2 -0.311,-0.467 -0.311,-0.777 0,-0.333 0.155,-0.621 0.378,-0.799 0.177,-0.155 0.399,-0.222 0.865,-0.222 h 6.589 c 1.686,0 2.817,-0.532 3.616,-1.353 0.799,-0.821 1.287,-1.93 1.287,-3.106 0,-1.087 -0.422,-2.13 -1.109,-2.928 -0.821,-0.955 -2.019,-1.553 -3.794,-1.553 h -11.625 v 3.838 h 10.915 c 0.621,0 0.932,0.133 1.131,0.377 0.155,0.177 0.244,0.421 0.244,0.687 0,0.311 -0.111,0.6 -0.31,0.799 -0.2,0.222 -0.488,0.333 -1.065,0.333 h -6.101 c -1.997,0 -3.151,0.533 -3.949,1.353 -0.799,0.821 -1.265,1.909 -1.265,3.128 0,1.198 0.488,2.308 1.287,3.129 0.799,0.821 1.93,1.353 3.927,1.353 L 0,3.971 Z" style="fill:#777676;fill-opacity:1;fill-rule:nonzero;stroke:none" transform="matrix(1.3333333,0,0,-1.3333333,749.2708,482.63613)" />
  </g>
</svg>
