<svg xmlns="http://www.w3.org/2000/svg" viewBox="0 0 216.47 48.99"><defs><style>.cls-1{fill:#231815;}.cls-2{fill:#727171;}.cls-3{fill:#aace36;}.cls-4{fill:#5dc2d0;}.cls-5,.cls-6{fill:none;}.cls-5{stroke:#231815;stroke-miterlimit:10;stroke-width:0.3px;}</style></defs><title>ロゴ_E案0</title><g id="テキスト"><path class="cls-1" d="M101.29,14.57a4,4,0,0,1-.84-.63,6.2,6.2,0,0,1-1.32.64L98.7,14a4.76,4.76,0,0,0,2.12-1.2.38.38,0,0,1-.26-.37v-1.1h.73v.75c0,.25,0,.25.8.25.45,0,.58,0,.63-.09a1.16,1.16,0,0,0,.07-.48l.67.17c0,.44-.08.72-.25.81a3.19,3.19,0,0,1-1.28.14h-.31l-.26.28h2.4l.31.32a5.23,5.23,0,0,1-1.33,1,11.61,11.61,0,0,0,2.47.45l-.44.68a10.76,10.76,0,0,1-2.76-.75,9.9,9.9,0,0,1-3,.85l-.39-.62a10.26,10.26,0,0,0,2.64-.55Zm3.74-4v1.4h-.61a5.2,5.2,0,0,1,.39.64l-.66.35a7.64,7.64,0,0,0-.85-1.37l.6-.29c.17.2.26.32.39.49V11.1H102a4.24,4.24,0,0,1,.6.78l-.61.38a5.2,5.2,0,0,0-.6-.9l.46-.26H99.44v.84H98.7v-1.4h1.17A3,3,0,0,0,99.6,10h-.51l-.28-.57a36.16,36.16,0,0,0,5.3-.46l.54.51-.81.12-.11,0,.5.14a4.08,4.08,0,0,1-.42.76Zm-6,2.14a4.12,4.12,0,0,0,.63-1.3l.66.2a4.42,4.42,0,0,1-.65,1.47Zm2.54-2.14a3.8,3.8,0,0,0-.34-.66l-.91.07a3.66,3.66,0,0,1,.3.59Zm.45,3.72.06,0a5,5,0,0,0,.8-.51h-1.83a5.3,5.3,0,0,0,.94.56Zm1-3.72a6.22,6.22,0,0,0,.42-.87c-.78.1-.93.11-1.49.15a3.67,3.67,0,0,1,.35.72Z"/><path class="cls-1" d="M109.23,11.79h1.12v.65h-1.13c0,.23,0,.46-.06.68a10.48,10.48,0,0,1,1.29,1.29l-.49.68a8.1,8.1,0,0,0-.91-1.14l-.06-.07a3.58,3.58,0,0,1-1.4,1.81l-.52-.6a3.1,3.1,0,0,0,1.42-2.65H107v-.65h1.5V10.5h-.41a4.36,4.36,0,0,1-.59,1.05l-.55-.46A4.62,4.62,0,0,0,107.8,9l.73.11c-.06.24-.12.47-.18.68h1.86v.68h-1Zm4.08,3.6h-.73v-.45h-1.29v.52h-.73V9.73h2.75Zm-2-1.14h1.29V10.42h-1.29Z"/><path class="cls-1" d="M115.45,15A4.51,4.51,0,0,0,117,13.77l.63.36A5.66,5.66,0,0,1,116,15.59ZM122,13v.6h-2.83v2.12h-.77V13.56h-2.82V9.72h.75V13Zm-1-.45H117V9.19H121Zm-3.33-2.35h2.59V9.73H117.7Zm0,.91h2.59v-.43H117.7Zm0,.93h2.59v-.45H117.7Zm3.64,3.47a7.21,7.21,0,0,0-1.57-1.35l.58-.41A7.52,7.52,0,0,1,122,15Z"/><path class="cls-1" d="M126.63,10.28v.62h-2.87v-.62Zm-.16,5.05h-1.79v.35H124V13.33h2.47Zm-.15-6.05v.57h-2.17V9.28Zm0,2.05v.57h-2.17v-.57Zm0,1v.56h-2.17v-.56Zm-1.64,2.42h1.11v-.83h-1.11Zm5.39-2.27A6.27,6.27,0,0,1,129,14.17a6,6,0,0,0,1.52.81l-.41.68a7.69,7.69,0,0,1-1.64-1,6.72,6.72,0,0,1-1.54,1l-.4-.61a4.89,4.89,0,0,0,1.46-.84,5,5,0,0,1-1-1.46h-.35v-.63h3.07Zm-.78-3.21v1.67c0,.15,0,.18.19.18s.22,0,.24-.22,0-.33,0-.36a2.44,2.44,0,0,0,0-.26l.63.2c0,1.15-.11,1.28-1,1.28-.57,0-.75-.11-.75-.49V9.9h-.86V10a2.25,2.25,0,0,1-.75,2l-.5-.5c.43-.28.59-.68.59-1.52V9.27Zm-1.61,3.5a3.83,3.83,0,0,0,.77,1,3.83,3.83,0,0,0,.66-1Z"/><path class="cls-1" d="M134,12.49V9.64h.91a.29.29,0,0,0,0-.1,4.24,4.24,0,0,0,.15-.55l.75.09a4.87,4.87,0,0,1-.22.56h1.28v2.85h-1.1V13h3v.64h-2.24a7.78,7.78,0,0,0,2.31,1.14l-.44.65a7.52,7.52,0,0,1-2.6-1.67v1.93h-.75V13.76a6,6,0,0,1-2.52,1.78l-.45-.62a6.29,6.29,0,0,0,2.35-1.29h-2.31V13h2.93v-.5Zm-1.89-.39a9.24,9.24,0,0,0,1.51-1l.27.61a10.76,10.76,0,0,1-1.38,1Zm1.19-1.43a5.83,5.83,0,0,0-1-.95l.53-.48a7,7,0,0,1,1,.93Zm1.4.1h1.5v-.6h-1.5Zm0,1.18h1.5V11.3h-1.5Zm3.62.6a8.91,8.91,0,0,0-1.3-1.07l.47-.48a8.29,8.29,0,0,1,1.31,1Zm-1.28-2.33a5.94,5.94,0,0,0,.95-1l.61.42a7.29,7.29,0,0,1-1.07,1Z"/><path class="cls-1" d="M147.19,9.83v.71H146V15c0,.52-.16.67-.76.67-.24,0-.63,0-1,0l-.16-.72A8.51,8.51,0,0,0,145,15c.2,0,.24-.05.24-.23V10.54h-1.12v3.53h-2.7v.58h-.65V9.23h3.35v.6Zm-5.76,1.4h.69V9.86h-.69Zm0,2.2h.69v-1.6h-.69Zm2.06-3.57h-.72v1.37h.72Zm0,2h-.72v1.6h.72Z"/><path class="cls-1" d="M152.61,14.64a2.25,2.25,0,0,0,2-2.3,2.12,2.12,0,0,0-1-1.91,2.7,2.7,0,0,0-.76-.26,10.57,10.57,0,0,1-1,3.67,3.24,3.24,0,0,1-.52.79,1.14,1.14,0,0,1-.79.38c-.8,0-1.46-1-1.46-2.24a3.29,3.29,0,0,1,3.35-3.3,2.79,2.79,0,0,1,3,2.83,2.9,2.9,0,0,1-2.41,3Zm-.51-4.49a2.18,2.18,0,0,0-1.4.64,2.66,2.66,0,0,0-.84,2c0,.75.31,1.45.66,1.45.18,0,.34-.16.56-.55a9.31,9.31,0,0,0,1-3.37Z"/><path class="cls-1" d="M157.42,12.27a5.63,5.63,0,0,0,1.83-3l.78.22a6.78,6.78,0,0,1-2,3.32Zm.37,2.39.82,0A21.39,21.39,0,0,0,160,11.39l.79.26a17.33,17.33,0,0,1-1.38,2.92h.21c.66,0,1.91-.15,2.34-.21h.14a14.3,14.3,0,0,0-.92-1.24l.64-.35a21,21,0,0,1,1.8,2.41l-.73.42-.4-.66-.19,0c-1.06.18-2.58.35-4.29.48Zm5.62-2.05a7.83,7.83,0,0,1-2.33-3.17l.73-.27A6.78,6.78,0,0,0,164,12Z"/><path class="cls-1" d="M168.1,14.17c.6-.11,1-.2,1.48-.31l0,.63c-.92.25-2.31.54-3.52.73l-.24-.74c.42,0,1.12-.13,1.48-.19V12.7h-1.14v-.65h3.06v.65H168.1Zm4.15-3.73v.68h-2a8.3,8.3,0,0,0,.47,2.33c.23.6.59,1.16.73,1.16s.25-.52.3-1.1l.68.47c-.21,1.15-.46,1.61-.84,1.61s-.81-.41-1.17-1a8,8,0,0,1-.92-3.46h-3.6v-.68h3.56c0-.59,0-.87-.07-1.41h.77c0,.57,0,.88,0,1.41Zm-1.05,0a6,6,0,0,0-.77-1.07L171,9a6.1,6.1,0,0,1,.83,1Z"/><path class="cls-1" d="M176.61,12.79h.69v.47h-.69v.42h.69v.46h-.69v.47h.86v.31a2,2,0,0,0,.73-1.62h-.57v-4h2.78v4h-.66v1.48c0,.12.06.15.22.15s.23,0,.26-.15a3.72,3.72,0,0,0,.06-.84l.58.2c0,1.31-.12,1.45-.94,1.45-.66,0-.82-.09-.82-.48V13.3h-.25a2.51,2.51,0,0,1-1.36,2.39l-.41-.54h-1.77v.43h-.65V13a4.19,4.19,0,0,1-.35.37l-.33-.6a5.18,5.18,0,0,0,1.15-1.56h-1v-.57h.59l-.5-.36A3.35,3.35,0,0,0,175,9l.66.1a2.65,2.65,0,0,1-.17.44h1.9v.55h-1.13a4.15,4.15,0,0,1-.15.52h1.41v.57h-1.68a4.41,4.41,0,0,1-.35.69h.62a3.83,3.83,0,0,0,.22-.65l.62.18c-.08.19-.13.29-.22.47h.77v.49h-.84Zm-1.46-2.69a3.42,3.42,0,0,1-.4.52h.62a5.3,5.3,0,0,0,.17-.52Zm.17,2.27v.42H176v-.42Zm0,.89v.42H176v-.42Zm0,.88v.47H176v-.47Zm3-3.66h1.46V9.9h-1.46Zm0,1.11h1.46V11h-1.46Zm0,1.13h1.46v-.6h-1.46Z"/><path class="cls-1" d="M189.1,11.53v.7h-2V14.6c0,.21.09.25.63.25s.59-.06.64-.23a5.41,5.41,0,0,0,.07-.84l.77.21a2.59,2.59,0,0,1-.24,1.27c-.17.23-.49.3-1.35.3-1.07,0-1.31-.12-1.31-.65V12.23h-1.05c0,2.21-.56,3.06-2.32,3.44l-.43-.65a2.2,2.2,0,0,0,1.7-1,4.49,4.49,0,0,0,.26-1.8h-1.79v-.7h2.82V9h.77v2.5Zm-5.21-.2A10,10,0,0,0,183,9.76l.69-.35a6.84,6.84,0,0,1,.89,1.52Zm3.07-.27a8.84,8.84,0,0,0,.94-1.72l.78.32a10.73,10.73,0,0,1-1,1.71Z"/><path class="cls-1" d="M196,9.24v1.38h1.37v.7H196v.22c0,2.3-.56,3.29-2.2,3.91l-.48-.61c1.46-.52,1.92-1.31,1.91-3.29v-.23h-2.08v2h-.77v-2h-1.27v-.7h1.27V9.29h.77v1.33h2.08V9.24Z"/><path class="cls-1" d="M202.53,11.87a10.78,10.78,0,0,1-2.38,1.18l-.41-.7a10.3,10.3,0,0,0,4.66-3.12l.66.41a12.27,12.27,0,0,1-1.73,1.64v4.1h-.8Z"/><path class="cls-1" d="M210.27,9.22v2a24.49,24.49,0,0,1,3.38,1.29l-.38.74a23.72,23.72,0,0,0-3-1.24v3.47h-.8V9.22Z"/><path class="cls-1" d="M11,28.3v2.36H0V28.3Zm-.59,19.34H3.56V49H1V40h9.47ZM9.84,24.47v2.2H1.52v-2.2Zm0,7.86V34.5H1.52V32.33Zm0,3.83v2.12H1.52V36.16ZM3.56,45.42H7.8V42.23H3.56Zm20.66-8.69A24.13,24.13,0,0,1,20,43.22a25.14,25.14,0,0,0,5.82,3.08l-1.55,2.6a28.65,28.65,0,0,1-6.31-3.75A25.69,25.69,0,0,1,12,49l-1.53-2.34a19.17,19.17,0,0,0,5.61-3.22,19.41,19.41,0,0,1-3.73-5.58H11.05V35.44H22.8Zm-3-12.29v6.38c0,.57.16.7.73.7.75,0,.86-.11.91-.86S23,29.4,23,29.3c0-.41,0-.65,0-1l2.44.78c0,4.37-.45,4.91-3.91,4.91-2.2,0-2.9-.46-2.9-1.9V26.83H15.37v.27c0,3.83-.86,6.09-2.87,7.64l-1.91-1.9c1.64-1.08,2.23-2.63,2.23-5.85V24.44ZM15,37.85a15.3,15.3,0,0,0,3,3.76,14.74,14.74,0,0,0,2.5-3.76Z"/><path class="cls-1" d="M39.37,36.78V25.84h3.49c0-.11.08-.22.1-.38.16-.51.41-1.34.57-2.09l2.87.35a17.74,17.74,0,0,1-.83,2.12h4.88V36.78H46.24v1.91h11.4v2.44H49a30.16,30.16,0,0,0,8.88,4.37L56.19,48a28.45,28.45,0,0,1-9.95-6.41V49H43.39V41.64a23.11,23.11,0,0,1-9.68,6.81L32,46.09a24.42,24.42,0,0,0,9-5H32.15V38.69H43.39V36.78Zm-7.27-1.5a34.52,34.52,0,0,0,5.79-3.87l1,2.34a39.8,39.8,0,0,1-5.28,3.81Zm4.56-5.5a23.53,23.53,0,0,0-3.81-3.62l2-1.85a25.5,25.5,0,0,1,3.87,3.59Zm5.36.4h5.75V27.9H42Zm0,4.53h5.75V32.19H42ZM55.89,37a31.85,31.85,0,0,0-5-4.1l1.83-1.82a31.35,31.35,0,0,1,5,3.83ZM51,28.09a23.94,23.94,0,0,0,3.62-3.89L57,25.81a26.59,26.59,0,0,1-4.11,4Z"/><path class="cls-1" d="M89.82,26.59V29.3H85.21V46.41c0,2-.62,2.58-2.9,2.58-.94,0-2.44-.06-3.86-.17l-.64-2.76a31.73,31.73,0,0,0,3.64.27c.75,0,.92-.16.92-.89V29.3H78.1V42.82H67.75V45h-2.5V24.28H78.1v2.31ZM67.75,32H70.4V26.69H67.75Zm0,8.42H70.4V34.23H67.75Zm7.88-13.68H72.87V32h2.76Zm0,7.54H72.87v6.14h2.76Z"/><path class="cls-1" d="M106,37.91h2.65V39.7H106v1.61h2.65v1.77H106v1.8h3.32v1.21c1.61-1.1,2.5-3.14,2.77-6.23h-2.18V24.52h10.65V39.86H118v5.66c0,.46.22.59.83.59s.89-.13,1-.56a15.62,15.62,0,0,0,.22-3.24l2.22.77c-.13,5-.45,5.56-3.59,5.56-2.55,0-3.14-.35-3.14-1.85V39.86h-1c-.4,4.91-1.79,7.36-5.23,9.18L107.82,47h-6.76v1.63H98.54V38.66a17.87,17.87,0,0,1-1.32,1.39l-1.29-2.3a18.72,18.72,0,0,0,4.4-6H96.55V29.62h2.26l-1.91-1.4a12.43,12.43,0,0,0,2.71-4.77l2.55.37a14,14,0,0,1-.65,1.69h7.27v2.12h-4.32a17.1,17.1,0,0,1-.59,2h5.42v2.17h-6.44a23.43,23.43,0,0,1-1.34,2.66h2.36a13.28,13.28,0,0,0,.86-2.53l2.36.7a14.48,14.48,0,0,1-.86,1.83h3v1.87H106Zm-5.58-10.28a16.43,16.43,0,0,1-1.53,2h2.39c.24-.62.43-1.26.64-2Zm.67,8.69v1.59h2.49V36.32Zm0,3.38v1.61h2.49V39.7Zm0,3.38v1.8h2.49v-1.8Zm11.32-14H118V26.83h-5.6Zm0,4.24H118V31.09h-5.6Zm0,4.35H118V35.36h-5.6Z"/><path class="cls-1" d="M153.82,33.08v2.71H146v9.06c0,.81.32.94,2.39.94,1.66,0,2.28-.21,2.44-.88a17.51,17.51,0,0,0,.27-3.19l3,.8c-.16,2.82-.43,4.24-.91,4.86-.67.88-1.9,1.15-5.18,1.15-4.13,0-5-.46-5-2.5V35.79h-4c0,8.45-2.14,11.69-8.88,13.14l-1.66-2.47c3.25-.53,5.58-1.9,6.52-3.81.64-1.28.91-3.27,1-6.86h-6.84V33.08H139.9V23.5h2.95v9.58Zm-19.93-.75a39.39,39.39,0,0,0-3.38-6L133.14,25a26.37,26.37,0,0,1,3.43,5.82Zm11.75-1a34.62,34.62,0,0,0,3.59-6.6l3,1.23a41.72,41.72,0,0,1-4,6.52Z"/><path class="cls-1" d="M175.41,24.23v6.14h9.92V33.1h-9.92c0,5-.46,7.41-1.91,9.82a14.46,14.46,0,0,1-6.65,5.39L165,45.87c5.85-2.6,7.56-5.55,7.4-12.77H161.94V30.37H172.4V24.23Z"/><path class="cls-1" d="M196.65,24.87v8.37a51.11,51.11,0,0,0,11.56-4.64l1.72,2.49A71.07,71.07,0,0,1,196.65,36v6.06c0,.83.27,1.21,1,1.37a38.06,38.06,0,0,0,5.47.29c2.93,0,5.9-.16,9.36-.48v2.95c-3.29.24-5.9.35-9.33.35-5.63,0-7.3-.16-8.29-.8s-1.26-1.53-1.26-3.09V24.87Zm14.27,5A24,24,0,0,0,208.26,25l2.07-.75A26.93,26.93,0,0,1,213,29Zm3.57-1.15a21,21,0,0,0-2.66-4.86l2-.64a17.05,17.05,0,0,1,2.65,4.56Z"/><path class="cls-2" d="M4.45,13.57a5.36,5.36,0,0,1-1.24.89,1.91,1.91,0,0,1-1.34.2c-.29-.13-.4-.32-.36-.55s.36-.47.83-.66a7.55,7.55,0,0,0,1.78-.88,3.61,3.61,0,0,0,1.06-1v-.12a5.37,5.37,0,0,0-1.3.2c-.63.14-1,.12-1.16-.06a.59.59,0,0,1,0-.64,1.25,1.25,0,0,1,.83-.49,3.63,3.63,0,0,1,1.14,0h.49v-.19c0-.44.08-.74.31-.89a.38.38,0,0,1,.59.1,1.39,1.39,0,0,1,.18,1l1.45.05c.45,0,.64.12.6.29a1,1,0,0,1-.49.52,1.39,1.39,0,0,1-1,.12l-.61,0c0,.43-.07.95-.08,1.45l-.07,1.84A1.85,1.85,0,0,1,5.82,16a.36.36,0,0,1-.58,0A1.35,1.35,0,0,1,5,15c0-.69.09-1.44.11-2.16A6.72,6.72,0,0,1,4.45,13.57Zm3.36,0A.5.5,0,0,1,7.5,14,.77.77,0,0,1,7,14a1.38,1.38,0,0,1-.41-.48l-.46-.81A.35.35,0,0,1,6,12.47c0-.06.08-.09.18-.05l.28.12a5,5,0,0,1,1,.44A.67.67,0,0,1,7.81,13.54Zm3,.34a5.46,5.46,0,0,1-1.22.72,1.87,1.87,0,0,1-1.24.07.44.44,0,0,1-.26-.54,1.33,1.33,0,0,1,.81-.56,6.06,6.06,0,0,0,1.67-.66A3.77,3.77,0,0,0,11.66,12c0-.19,0-.37,0-.5-.6,0-1.05,0-1.33.06s-.66-.06-.7-.24,0-.43.25-.68a.94.94,0,0,1,.95-.28,5.18,5.18,0,0,0,.86.1A1,1,0,0,1,12,9.57a.41.41,0,0,1,.59.1,1.26,1.26,0,0,1,.2.83l1.18,0a1.1,1.1,0,0,1,.7.21.35.35,0,0,1,0,.5.76.76,0,0,1-.78.24l-1.21,0c0,.21-.05.48-.06.74a1,1,0,0,1,.33.2,2.3,2.3,0,0,0,.62.36c.2.11.55.28,1,.52a10.7,10.7,0,0,0,1.09.57,6.19,6.19,0,0,0,1.15.38c.3.09.36.26.16.49a2.27,2.27,0,0,1-1.07.62A1.14,1.14,0,0,1,14.57,15c-.46-.5-.84-.88-1.11-1.15a3.15,3.15,0,0,0-.77-.57s-.06-.06-.08-.06l0,1.57a1.79,1.79,0,0,1-.26,1.28.37.37,0,0,1-.58,0A1.43,1.43,0,0,1,11.53,15c0-.62.06-1.27.09-1.93A4.55,4.55,0,0,1,10.78,13.88Z"/><path class="cls-1" d="M25.21,13c0,.13,0,.3,0,.43a.44.44,0,0,1-.22.37,2.37,2.37,0,0,1-.41.11,4.62,4.62,0,0,1-.73.16,9.16,9.16,0,0,1-1.12.12c-.23,0-.46,0-.74,0a3.58,3.58,0,0,1-1.64-.32,1.13,1.13,0,0,1-.57-.61,1.3,1.3,0,0,1-.08-.41,1.22,1.22,0,0,1,0-.33,2.39,2.39,0,0,1,1-1.36c.2-.13.4-.27.6-.39A13.3,13.3,0,0,1,20.94,9c0-.18-.08-.54-.12-.74s-.12-.26-.13-.38,0,0,0,0,.26-.27.5-.32l.14,0a.35.35,0,0,1,.27.07.54.54,0,0,1,.1.31v.07c0,.11,0,.25,0,.37a.16.16,0,0,0,0,.1c0,.37,0,.57.08.94s.12.67.2,1c.39-.19.75-.35,1.15-.52a3.22,3.22,0,0,0,.5-.27c.12-.09.26-.24.4-.25h0a1,1,0,0,1,.6.27.55.55,0,0,1,.14.32s0,.09,0,.12c-.09.19-.32.22-.62.31a13.5,13.5,0,0,0-1.77.58,6.86,6.86,0,0,0-1.59.91,1.43,1.43,0,0,0-.46.69.47.47,0,0,0,0,.17.72.72,0,0,0,.07.26c.23.53,1.19.5,1.69.48h.11c.39,0,.64-.07,1-.13a5.63,5.63,0,0,0,.94-.24,3.47,3.47,0,0,0,.52-.21,1.43,1.43,0,0,1,.35-.12h.05c.07,0,.1.1.1.21Z"/><path class="cls-2" d="M42.84,7.09a4.21,4.21,0,0,1-.51.95.45.45,0,0,1-.73.05,6.42,6.42,0,0,0-1.33-.86,6.61,6.61,0,0,0-1.73-.5,10,10,0,0,0-2.18-.08A5.57,5.57,0,0,0,34.78,7a4.9,4.9,0,0,0-.86.44c-.35.25-.64.21-.78-.13A1.41,1.41,0,0,1,33.26,6c.2-.35.44-.52.67-.46a13,13,0,0,0,1.85,0,7.33,7.33,0,0,1,1.41-.07c0-.21,0-.45,0-.7V4.38a6.22,6.22,0,0,0-1.44.14c-.39.09-.63,0-.71-.26a1,1,0,0,1,.1-.74c.14-.21.46-.28.9-.23s.78,0,1.18,0V2.88c0-.17,0-.4,0-.6a8.21,8.21,0,0,0-1.5.12c-.42.11-.68,0-.77-.29a.89.89,0,0,1,.11-.82c.16-.24.5-.33,1-.28l1.17.06c0-.55.13-.9.36-1s.45.09.61.51a2.48,2.48,0,0,1,.12.56l1.26.09c.48,0,.78.09.9.28a.82.82,0,0,1,.08.63c0,.24-.25.36-.57.35-.64-.09-1.24-.14-1.75-.17,0,.24,0,.58-.05,1l1.46.09c.42,0,.69.08.8.24a.75.75,0,0,1,.07.56c-.05.23-.23.33-.52.31-.66-.08-1.3-.12-1.83-.15l0,.94s0,.08,0,.13a6.32,6.32,0,0,1,.73.09,26.9,26.9,0,0,1,3.9.91C43,6.54,43,6.76,42.84,7.09Zm-3.36.66A.54.54,0,0,1,40,8a2.54,2.54,0,0,1,.19.57,1.3,1.3,0,0,1-.1.62,2.55,2.55,0,0,0-.15.71c0,.22,0,1,0,2.16a16.64,16.64,0,0,0,.14,2.58,3.3,3.3,0,0,1,0,1.18c-.1.28-.22.45-.34.47s-.26,0-.37-.18a1.33,1.33,0,0,1-.16-.52c0-.69-.1-1.37-.11-2l-.07,0a16.54,16.54,0,0,0-3.19-.23.4.4,0,0,1-.23-.1c-.15.39-.31.76-.45,1.07a10.9,10.9,0,0,1-.87,1.35.93.93,0,0,1-.57.39c-.16,0-.31-.06-.42-.29a1.16,1.16,0,0,1-.14-.56,1,1,0,0,1,.35-.61A8.61,8.61,0,0,0,35,12.4a5.11,5.11,0,0,0,.52-2c0-.56,0-1.14,0-1.61a2.8,2.8,0,0,1,.12-1.11c.1-.2.23-.28.34-.25l.37,0a12.18,12.18,0,0,0,1.6.16ZM36.19,11a10.36,10.36,0,0,1-.28,1.34l3.14.2c0-.42,0-.87,0-1.25v-.08a.86.86,0,0,0-.16,0,17.82,17.82,0,0,0-2.6-.2Zm.22-2.13A3,3,0,0,0,36.28,10l2.64.17h.14A3.29,3.29,0,0,0,38.92,9c0-.07-.12-.14-.29-.19a5,5,0,0,0-1.19-.12C36.81,8.69,36.47,8.76,36.41,8.89Z"/><path class="cls-2" d="M48.75,9.29c.11.14,0,.36-.2.59a14.83,14.83,0,0,0-1.22,1.28,1.46,1.46,0,0,1-.77.57c-.17,0-.38-.11-.56-.39a1.12,1.12,0,0,1-.22-.72c0-.17.24-.34.6-.49a9.53,9.53,0,0,0,1.72-.81C48.43,9.17,48.64,9.16,48.75,9.29Zm-.57-3c.29.21.4.4.33.53s-.28.18-.6.17S47.15,7,46.75,7A1,1,0,0,1,46,6.74a.56.56,0,0,1-.08-.51.92.92,0,0,1,.39-.52.82.82,0,0,1,.61-.14.69.69,0,0,1,.41.2A6,6,0,0,0,48.18,6.32ZM49,2.9c.24.25.32.46.23.59s-.32.15-.63.07-.65-.15-1-.21A1,1,0,0,1,46.87,3a.47.47,0,0,1,0-.51,1.08,1.08,0,0,1,.49-.42A.8.8,0,0,1,48,2a.83.83,0,0,1,.38.27A3.17,3.17,0,0,0,49,2.9Zm6.45-1.06L55.39,2l1,.09c1.08.08,2.46.29,4.11.58.23,0,.27.18.1.44a2.44,2.44,0,0,1-.56.64.73.73,0,0,1-.8,0,8.44,8.44,0,0,0-1.37-.56,10.37,10.37,0,0,0-1.81-.31,15.59,15.59,0,0,0-2.26-.06A8.23,8.23,0,0,0,52.15,3a6.31,6.31,0,0,0-.9.3c-.38.18-.7.14-.87-.11s-.12-.52.15-.86a.8.8,0,0,1,.7-.27,15.93,15.93,0,0,0,2,0A9.26,9.26,0,0,1,54.51,2V1.79a1.59,1.59,0,0,0-.06-.38A1.51,1.51,0,0,0,54.3,1,.47.47,0,0,1,54.64.4a.78.78,0,0,1,.87.16.81.81,0,0,1,.16.91C55.62,1.57,55.53,1.69,55.46,1.84ZM53.69,3.11A.57.57,0,0,1,54.13,3c.14,0,.27.2.34.5a1.18,1.18,0,0,1-.06.69,1.66,1.66,0,0,1-.77.47,3.82,3.82,0,0,0-.43.24c-.18.14-.3.24-.3.27s.11.16.22.2a5.46,5.46,0,0,0,1.43.23,11.18,11.18,0,0,0,2.06-.11,1,1,0,0,0,.28,0,2,2,0,0,0-.71-.88.73.73,0,0,1-.4-.55.38.38,0,0,1,.32-.47.78.78,0,0,1,.57,0,1.2,1.2,0,0,1,.23.21l.3.3a7.64,7.64,0,0,1,.62.66,1.34,1.34,0,0,1,.4.83.75.75,0,0,1-.23.48,1.45,1.45,0,0,1-.81.37,20.42,20.42,0,0,1-2.52.15,13.31,13.31,0,0,1-1.46-.16l-.94-.15a1.65,1.65,0,0,1-.68-.22.73.73,0,0,1-.3-.59.78.78,0,0,1,.44-.63c.23-.17.53-.4.83-.66a6,6,0,0,0,.62-.61A2.34,2.34,0,0,1,53.69,3.11Z"/><path class="cls-1" d="M69.27,9.46a2.56,2.56,0,0,1-.86,1.13,3.39,3.39,0,0,1-1.68.72,1.28,1.28,0,0,1-.5,0c-.14,0-.27-.2-.36-.32a2.71,2.71,0,0,1-.17-.25c0-.07-.08-.15-.07-.2a0,0,0,0,1,0,0c.07-.08.18-.06.3-.07l.39,0a3.78,3.78,0,0,0,.84-.14,2,2,0,0,0,.76-.4,2,2,0,0,0,.69-1.21,3.07,3.07,0,0,0,.07-.53,1.86,1.86,0,0,0-1.23-1.88,2.51,2.51,0,0,0-.55-.17l-.11,0a7.91,7.91,0,0,1-.26.78,18.08,18.08,0,0,1-.85,1.78A4.26,4.26,0,0,1,64.56,10a1.14,1.14,0,0,1-.92.28.45.45,0,0,1-.12,0,1.3,1.3,0,0,1-.88-.61,2.09,2.09,0,0,1-.3-1.07,2.66,2.66,0,0,1,.06-.62,3.39,3.39,0,0,1,.69-1.41,3.26,3.26,0,0,1,1.58-1,4.37,4.37,0,0,1,2.27-.11l.15,0A3.45,3.45,0,0,1,69,6.58a2.87,2.87,0,0,1,.41,2.34A4.26,4.26,0,0,1,69.27,9.46ZM65,6.13A3,3,0,0,0,63.65,7a2.31,2.31,0,0,0-.47,1,.65.65,0,0,0,0,.2,1.74,1.74,0,0,0,.11,1,.73.73,0,0,0,.43.31.47.47,0,0,0,.16,0c.19,0,.53-.37.69-.6a6.59,6.59,0,0,0,.76-1.16,6.73,6.73,0,0,0,.5-1.2c0-.13.12-.37.17-.54A2.7,2.7,0,0,0,65,6.13Z"/><path class="cls-1" d="M80.42,6.22a5,5,0,0,1-.11.51c-.09.34-.21.56-.36.63a.4.4,0,0,1-.18,0h-.09l-.33-.09a7.39,7.39,0,0,0-1.14-.15c-.6,0-1.11-.07-1.7-.09l-.08,1.72h.15l.8.05h.21l.94,0a2.73,2.73,0,0,0,.53,0l.25,0h.1a.13.13,0,0,1,.09,0,.38.38,0,0,1,.12.34,1.74,1.74,0,0,1-.05.34c-.08.39-.18.51-.35.57a.69.69,0,0,1-.25,0h-.15L78.36,10l-.83-.1c-.37,0-.7-.07-1.12-.09,0,.66,0,1.56,0,2.27a7.69,7.69,0,0,1,1.32.56,10,10,0,0,1,1,.56c.24.12.49.21.73.35l.4.15c.15,0,.29.08.31.17a.27.27,0,0,1,0,.12c0,.21-.24.41-.48.62s-.42.36-.6.36l-.13,0c-.18-.08-.44-.42-.73-.61s-.5-.38-.84-.59-.62-.35-1-.53a3.66,3.66,0,0,1-.14,1,1.93,1.93,0,0,1-.8.92,2.61,2.61,0,0,1-1.34.25h-.23a2.26,2.26,0,0,1-1-.36,1.53,1.53,0,0,1-.66-.7,1.61,1.61,0,0,1-.21-.89,1.42,1.42,0,0,1,0-.3,1.78,1.78,0,0,1,.51-.89,2.46,2.46,0,0,1,1.54-.49h.4a6.56,6.56,0,0,1,1,.14c0-.75,0-1.32,0-2-.45,0-.81,0-1.32,0s-.83.05-1.21.09a2.31,2.31,0,0,1-.49.06h0c-.26,0-.34-.13-.34-.36a1.6,1.6,0,0,1,0-.27,1,1,0,0,1,.29-.65h.07a.83.83,0,0,1,.26.06,2.53,2.53,0,0,0,.39.09h.08l1,0c.52,0,.88,0,1.28,0,0-.38,0-1.25,0-1.77-.47,0-1,0-1.43,0s-.92,0-1.49.09c-.18,0-.43.06-.67.09h-.12a.46.46,0,0,1-.24-.08.65.65,0,0,1-.12-.47,1.66,1.66,0,0,1,0-.33c.06-.27.18-.53.37-.57a.08.08,0,0,1,.07,0c.13,0,.19.1.33.16s.22.09.32.1h0c.39,0,.91,0,1.21,0l1.77,0c0-.31,0-.67,0-1a2.78,2.78,0,0,0,0-.45.8.8,0,0,1,0-.26.49.49,0,0,1,0-.12c0-.19.37-.35.6-.35h0a.63.63,0,0,1,.52.26.47.47,0,0,1,0,.25c0,.07,0,.12,0,.17s-.07.46-.09.64l-.1.91.53,0,.58,0c.24,0,.44,0,.66,0,.5,0,.85,0,1.34,0,0,0,.09,0,.15,0a1.11,1.11,0,0,1,.45-.12.22.22,0,0,1,.11,0,.39.39,0,0,1,.06.23A.32.32,0,0,1,80.42,6.22Zm-5,6.61a7.54,7.54,0,0,0-.87-.18h-.26a3.31,3.31,0,0,0-.71,0c-.29,0-.68.14-.72.59v.05c0,.4.28.67.76.8a2.42,2.42,0,0,0,.47.07,1.23,1.23,0,0,0,1.11-.38,2.2,2.2,0,0,0,.22-.93Z"/><path class="cls-1" d="M91.74,12.25A2.34,2.34,0,0,1,91,13.67a4.56,4.56,0,0,1-2.09,1.19,8.55,8.55,0,0,1-1.8.29h0a.9.9,0,0,1-.81-.55A1.37,1.37,0,0,1,86,14a.42.42,0,0,1,0-.13c0-.06.14-.06.27-.05h.17l.52,0h.29a6.59,6.59,0,0,0,2.19-.45,2.06,2.06,0,0,0,1-.8,1.53,1.53,0,0,0,.26-.82,1.21,1.21,0,0,0,0-.19c-.09-1-1-1.2-1.67-1.22h0a5.34,5.34,0,0,0-3.14.86,3.08,3.08,0,0,0-.88.92c-.16.19-.25.63-.45.69h-.11a.83.83,0,0,1-.49-.23,1,1,0,0,1-.42-.73.2.2,0,0,1,0-.07c0-.21.25-.36.33-.59.28-.74.46-1.32.76-2.12.14-.45.28-1,.4-1.52-.34,0-.75,0-1.09,0s-.53,0-.73,0h-.15c-.25,0-.37-.06-.47-.21a.62.62,0,0,1,0-.25,1,1,0,0,1,0-.26A.92.92,0,0,1,83,6.2a.41.41,0,0,1,.16,0,.85.85,0,0,1,.24.08,1.78,1.78,0,0,0,.62.17l.43,0a8.1,8.1,0,0,0,.84,0c.13-.68.19-1,.28-1.54V4.81c0-.11,0-.27,0-.41a.51.51,0,0,1,0-.22A.8.8,0,0,1,86.28,4h0c.38,0,.59.15.65.33a.2.2,0,0,1,0,.15,1.29,1.29,0,0,1-.08.31,2.33,2.33,0,0,0-.22.56c-.1.29-.22.6-.36,1.13.57,0,.86-.07,1.21-.1.59-.06.9-.12,1.34-.2A5.44,5.44,0,0,0,89.47,6a1.16,1.16,0,0,1,.32-.07l.06,0c.08,0,.1.2.1.4s0,.22,0,.34a1.06,1.06,0,0,1-.15.5.9.9,0,0,1-.51.19c-.67.11-1.06.12-1.66.17s-1,0-1.52,0h0c-.24,1-.55,1.9-.78,2.84a9.71,9.71,0,0,1,2.56-.89A6,6,0,0,1,89,9.39a4.27,4.27,0,0,1,.82.11,2.52,2.52,0,0,1,1.66,1.16,2.11,2.11,0,0,1,.29,1.16C91.78,12,91.76,12.1,91.74,12.25Z"/><path class="cls-3" d="M16,3.19a.65.65,0,0,1,.05.94,1.45,1.45,0,0,1-1.41.38l-3.77-.13A11.86,11.86,0,0,0,11.91,5a17.38,17.38,0,0,0,3.14,1.28,22.73,22.73,0,0,0,3.6.77c.29.07.43.25.36.49s-.66.61-1.76,1.16-1.9.64-2.38.3c-.69-.47-1.71-1.26-3-2.3-.57-.43-1-.83-1.37-1.07l0,1.11a10.6,10.6,0,0,1-.23,2.42c-.14.6-.39,1-.68,1a.68.68,0,0,1-.75-.29,5.25,5.25,0,0,1-.27-2.4l.06-1.67A12.79,12.79,0,0,1,6.24,7.32a11.37,11.37,0,0,1-2.84,1,3.07,3.07,0,0,1-2.19-.25c-.37-.31-.47-.66-.28-1s.69-.59,1.51-.73a14.49,14.49,0,0,0,3.74-.84,9.79,9.79,0,0,0,2.3-1.2l-.18,0c-1.69,0-3,.07-3.68.1S3.42,4.32,3.29,4s0-.76.48-1.24a1.78,1.78,0,0,1,1.74-.44,17,17,0,0,0,3.06.32h.15A4.33,4.33,0,0,1,9,1c.16-.37.4-.63.7-.65a.75.75,0,0,1,.74.35,3.09,3.09,0,0,1,.29,1.77c0,.06,0,.17,0,.26,1.14,0,2.51.12,4,.17A2.11,2.11,0,0,1,16,3.19Z"/><path class="cls-4" d="M31.33,7.86c.47.42.63.77.48,1s-.52.27-1.06.19S29.61,8.86,29,8.81a1.67,1.67,0,0,1-1.3-.53.87.87,0,0,1-.05-.92,1.68,1.68,0,0,1,.77-.74,1.32,1.32,0,0,1,1.06-.17,1.17,1.17,0,0,1,.67.43A12.72,12.72,0,0,0,31.33,7.86Z"/><path class="cls-4" d="M32.67,10.85c.19.24.09.63-.27,1.05a22.2,22.2,0,0,0-1.87,2.19,2.75,2.75,0,0,1-1.27,1.07c-.34.05-.68-.14-1-.63a2.12,2.12,0,0,1-.45-1.22c.07-.31.42-.61,1-.91A13,13,0,0,0,31.58,11C32.11,10.66,32.48,10.62,32.67,10.85Z"/><path class="cls-4" d="M32.49,3.36c.44.44.57.82.42,1s-.58.24-1.12.13a15.13,15.13,0,0,0-1.68-.34,1.74,1.74,0,0,1-1.29-.68.85.85,0,0,1,0-.91,1.89,1.89,0,0,1,.85-.74,1.58,1.58,0,0,1,1.12-.08,1.48,1.48,0,0,1,.67.51A5.83,5.83,0,0,0,32.49,3.36Z"/><path class="cls-4" d="M51.08,8.81A1.12,1.12,0,0,1,51.14,8a1.25,1.25,0,0,1,.51-.55c.2-.11.43,0,.73.23a1.18,1.18,0,0,1,.39.76,3.92,3.92,0,0,1-.11.73,3.43,3.43,0,0,0-.13.67,8.32,8.32,0,0,1-.47,2.11,4.75,4.75,0,0,1-.75,1.38,7.28,7.28,0,0,1-1.22,1.18,4.83,4.83,0,0,1-1.41.82,2.57,2.57,0,0,1-1.1.14,1.1,1.1,0,0,1-.83-.49.77.77,0,0,1,0-.86,1.45,1.45,0,0,1,.73-.6A9.71,9.71,0,0,0,48.91,13,3.54,3.54,0,0,0,50,12.31a5,5,0,0,0,.74-1.07,6,6,0,0,0,.46-1.39A3.27,3.27,0,0,0,51.08,8.81Z"/><path class="cls-4" d="M55.09,12.44a13,13,0,0,1-.15,2.32c-.08.56-.29.92-.54,1a.53.53,0,0,1-.65-.29,5.55,5.55,0,0,1-.28-2.3l.09-3.41a5.78,5.78,0,0,1,.17-1.87c.13-.36.31-.61.56-.66a.68.68,0,0,1,.67.35,3.68,3.68,0,0,1,.26,1.68C55.19,10,55.13,11.08,55.09,12.44Z"/><path class="cls-4" d="M56.52,7.69a.94.94,0,0,1,.78-.29.84.84,0,0,1,.7.37,1.55,1.55,0,0,1-.06,1.09,7,7,0,0,0-.11,3.38,2.41,2.41,0,0,0,.24.65,1.5,1.5,0,0,0,.6.43,4.66,4.66,0,0,0,1.25.41,2.84,2.84,0,0,0,.88,0,4.49,4.49,0,0,0,1.64-.86c.56-.47.94-.66,1.06-.55s.12.51,0,1.09a4.82,4.82,0,0,1-1,1.8,2.29,2.29,0,0,1-1.47,1,4.61,4.61,0,0,1-1.45-.36,8.54,8.54,0,0,1-1.75-1,2.84,2.84,0,0,1-.94-.8,3.09,3.09,0,0,1-.44-1.29c-.11-1.26-.15-2.63-.13-4.11A1.61,1.61,0,0,1,56.52,7.69Z"/><path class="cls-1" d="M100,3.27a1.82,1.82,0,0,0,1.18.43c.53,0,.81-.21.81-.6s-.17-.51-.53-.57l-.55-.08A1.31,1.31,0,0,1,100.1,2a1.12,1.12,0,0,1-.29-.79,1.18,1.18,0,0,1,.36-.9,1.34,1.34,0,0,1,1-.35,2.29,2.29,0,0,1,1.34.44l-.35.53a1.87,1.87,0,0,0-1-.33.77.77,0,0,0-.49.15.58.58,0,0,0-.2.47.48.48,0,0,0,.13.33.86.86,0,0,0,.45.21l.47.07a1.29,1.29,0,0,1,.86.43,1.27,1.27,0,0,1,.27.8c0,.82-.5,1.23-1.45,1.24a2.3,2.3,0,0,1-1.58-.58Z"/><path class="cls-1" d="M108.06,2.44h-1.64V4.31h-.63V0h.63V1.87h1.64V0h.63V4.31h-.63Z"/><path class="cls-1" d="M112.08,0h.63V4.31h-.63Z"/><path class="cls-1" d="M116.73.61H115.6V0h2.89V.61h-1.13v3.7h-.63Z"/><path class="cls-1" d="M123.55,3.35H122l-.32,1H121L122.5,0H123l1.51,4.27h-.66Zm-.18-.57-.6-1.87h0l-.6,1.87Z"/><path class="cls-1" d="M127.49,0h1.61a1.25,1.25,0,0,1,.85.28,1.14,1.14,0,0,1,.41.91,1.19,1.19,0,0,1-.8,1.18l.95,1.9h-.74l-.86-1.83h-.8V4.31h-.62Zm.62,1.87h.95a.72.72,0,0,0,.53-.21.67.67,0,0,0,.17-.47.58.58,0,0,0-.2-.49.7.7,0,0,0-.46-.13h-1Z"/><path class="cls-1" d="M135.67,3.35H134.1l-.32,1h-.67L134.62,0h.52l1.51,4.27H136Zm-.18-.57-.6-1.87h0l-.6,1.87Z"/><path class="cls-1" d="M142.4,0h.45l-1.38,4.34H141Z"/><path class="cls-1" d="M147.71.61h-1.14V0h2.9V.61h-1.14v3.7h-.62Z"/><path class="cls-1" d="M152.26,2.17a9.46,9.46,0,0,1,0-1,1.31,1.31,0,0,1,.14-.41,1.41,1.41,0,0,1,.49-.52,1.3,1.3,0,0,1,.81-.24,1.35,1.35,0,0,1,.82.24,1.3,1.3,0,0,1,.47.53,1,1,0,0,1,.15.4c0,.17,0,.5,0,1s0,.82,0,1a1,1,0,0,1-.15.41,1.3,1.3,0,0,1-.47.53,1.5,1.5,0,0,1-.82.24,1.44,1.44,0,0,1-.81-.24,1.36,1.36,0,0,1-.49-.53l-.08-.18c0-.06,0-.14-.06-.23A9.37,9.37,0,0,1,152.26,2.17Zm.63,0a5.5,5.5,0,0,0,0,.86.75.75,0,0,0,.17.36.69.69,0,0,0,.26.21.65.65,0,0,0,.38.1.71.71,0,0,0,.39-.1.85.85,0,0,0,.25-.21,1,1,0,0,0,.17-.36,7.19,7.19,0,0,0,0-.86,7.19,7.19,0,0,0,0-.86.88.88,0,0,0-.17-.35.75.75,0,0,0-.25-.22.93.93,0,0,0-.39-.1.85.85,0,0,0-.38.1.63.63,0,0,0-.26.22.68.68,0,0,0-.17.35A5.5,5.5,0,0,0,152.89,2.17Z"/><path class="cls-1" d="M158.39,0H159V2.79a1,1,0,0,0,.25.67.78.78,0,0,0,.6.24.81.81,0,0,0,.6-.24.9.9,0,0,0,.24-.67V0h.63V2.86a1.44,1.44,0,0,1-.43,1.07,1.42,1.42,0,0,1-1,.41,1.43,1.43,0,0,1-1-.41,1.37,1.37,0,0,1-.43-1.07Z"/><path class="cls-1" d="M164.64,0h1.62a1.24,1.24,0,0,1,.84.28,1.14,1.14,0,0,1,.41.91,1.18,1.18,0,0,1-.8,1.18l1,1.9h-.74l-.86-1.83h-.8V4.31h-.63Zm.63,1.87h.95a.74.74,0,0,0,.53-.21.71.71,0,0,0,.17-.47.56.56,0,0,0-.21-.49.68.68,0,0,0-.46-.13h-1Z"/><path class="cls-1" d="M170.7,0h.63V4.31h-.63Z"/><path class="cls-1" d="M174.7,3.27a1.81,1.81,0,0,0,1.17.43c.54,0,.81-.21.82-.6s-.17-.51-.54-.57l-.55-.08a1.37,1.37,0,0,1-.81-.41,1.16,1.16,0,0,1-.28-.79,1.18,1.18,0,0,1,.36-.9,1.34,1.34,0,0,1,1-.35,2.29,2.29,0,0,1,1.34.44l-.35.53a1.88,1.88,0,0,0-1-.33.76.76,0,0,0-.48.15.61.61,0,0,0-.21.47.49.49,0,0,0,.14.33.79.79,0,0,0,.45.21l.46.07a1.25,1.25,0,0,1,.86.43,1.22,1.22,0,0,1,.28.8c0,.82-.51,1.23-1.45,1.24a2.29,2.29,0,0,1-1.58-.58Z"/><path class="cls-1" d="M180.49,0h.59l1.19,2.78L183.43,0H184V4.31h-.63V1.64h0l-.87,2.05H182l-.86-2h0V4.31h-.63Z"/><path class="cls-1" d="M191.27,0h.6l1.87,3h0V0h.63V4.31h-.6l-1.87-3h0v3h-.63Z"/><path class="cls-1" d="M199.9,3.35h-1.57l-.32,1h-.66L198.85,0h.53l1.5,4.27h-.66Zm-.18-.57-.6-1.87h0l-.6,1.87Z"/><path class="cls-1" d="M203.41,0h.66L205,3.29h0L206,0h.66l-1.36,4.27h-.49Z"/><path class="cls-1" d="M209.57,0h.63V4.31h-.63Z"/><line class="cls-5" x1="98.95" y1="6.83" x2="212.9" y2="6.83"/></g><g id="トンボ"><rect class="cls-6" x="-339.05" y="-405.34" width="595.28" height="841.89" transform="translate(-57.02 -25.81) rotate(-90)"/></g></svg>