<?xml version="1.0" encoding="UTF-8"?>
<svg id="_レイヤー_2" data-name="レイヤー 2" xmlns="http://www.w3.org/2000/svg" viewBox="0 0 176.57 49.5">
  <defs>
    <style>
      .cls-1 {
        fill: #0f6da0;
      }
    </style>
  </defs>
  <g id="_レイヤー_1-2" data-name="レイヤー 1">
    <g>
      <path class="cls-1" d="M160.4,43.05h-21.1v-17.98h0s0-8.99,0-8.99h21.1l-13.49,13.49,13.49,13.49ZM54.4,16.07l14.28,26.98,4.48-8.46,4.48,8.46,14.28-26.98h-37.51ZM103.59,16.07c-7.45,0-13.49,6.04-13.49,13.49s6.04,13.49,13.49,13.49,13.49-6.04,13.49-13.49-6.04-13.49-13.49-13.49ZM119.44,16.07v8.99h.02v17.98h17.98l-8.99-8.99c4.96,0,8.98-4.03,8.98-8.99s-4.03-8.99-8.99-8.99h-8.99ZM167.57,25.06h8.99c0-4.97-4.03-8.99-8.99-8.99s-8.99,4.03-8.99,8.99,4.03,8.99,8.99,8.99h-8.99c0,4.97,4.03,8.99,8.99,8.99s8.99-4.03,8.99-8.99-4.03-8.99-8.99-8.99Z"/>
      <polygon class="cls-1" points="49.73 43.05 36.65 43.05 36.65 16.07 32.88 16.07 49.73 0 49.73 43.05"/>
      <path class="cls-1" d="M30.32,16.07v-7.14H5.47L.66,32.41c.29-.22.6-.42.95-.61,4.25-2.23,13.11-1.83,13.11,4.38s-8.85,6.61-13.11,4.38c-.64-.33-1.17-.73-1.61-1.16.72,3.09,2.46,5.54,5.23,7.32,2.87,1.85,6.07,2.77,9.62,2.77,4.12,0,7.49-1.4,10.12-4.21,2.63-2.81,3.95-6.39,3.95-10.75,0-3.77-.97-6.81-2.92-9.14-1.94-2.33-4.75-3.64-8.42-3.94l1.14-5.39h11.6Z"/>
    </g>
  </g>
</svg>